<?xml version="1.0" encoding="UTF-8" standalone="no"?>
<!-- Created with Inkscape (http://www.inkscape.org/) -->

<svg
   width="210mm"
   height="297mm"
   viewBox="0 0 210 297"
   version="1.1"
   id="svg1"
   inkscape:version="1.4 (e7c3feb1, 2024-10-09)"
   sodipodi:docname="logo-v2.svg"
   xmlns:inkscape="http://www.inkscape.org/namespaces/inkscape"
   xmlns:sodipodi="http://sodipodi.sourceforge.net/DTD/sodipodi-0.dtd"
   xmlns="http://www.w3.org/2000/svg"
   xmlns:svg="http://www.w3.org/2000/svg">
  <sodipodi:namedview
     id="namedview1"
     pagecolor="#505050"
     bordercolor="#eeeeee"
     borderopacity="1"
     inkscape:showpageshadow="0"
     inkscape:pageopacity="0"
     inkscape:pagecheckerboard="0"
     inkscape:deskcolor="#505050"
     inkscape:document-units="mm"
     inkscape:zoom="0.60834407"
     inkscape:cx="566.29138"
     inkscape:cy="503.82673"
     inkscape:current-layer="g4" />
  <defs
     id="defs1">
    <linearGradient
       id="swatch4"
       inkscape:swatch="solid">
      <stop
         style="stop-color:#ffffff;stop-opacity:1;"
         offset="0"
         id="stop4" />
    </linearGradient>
    <rect
       x="288.66843"
       y="815.60287"
       width="66.43956"
       height="453.62182"
       id="rect3" />
    <rect
       x="231.39295"
       y="182.13604"
       width="241.70254"
       height="175.26298"
       id="rect2" />
    <inkscape:path-effect
       effect="fillet_chamfer"
       id="path-effect2"
       is_visible="true"
       lpeversion="1"
       nodesatellites_param="F,0,0,1,0,5.0367294,0,1 @ F,0,0,1,0,1.7314174,0,1 @ F,0,0,1,0,1.5558248,0,1 @ F,0,0,1,0,1.8058602,0,1 @ F,0,0,1,0,1.5211485,0,1 @ F,0,0,1,0,5.4775433,0,1"
       radius="13"
       unit="px"
       method="auto"
       mode="F"
       chamfer_steps="1"
       flexible="false"
       use_knot_distance="true"
       apply_no_radius="true"
       apply_with_radius="true"
       only_selected="false"
       hide_knots="false" />
    <inkscape:path-effect
       effect="bspline"
       id="path-effect1"
       is_visible="true"
       lpeversion="1.3"
       weight="33.333333"
       steps="2"
       helper_size="0"
       apply_no_weight="true"
       apply_with_weight="true"
       only_selected="false"
       uniform="false" />
    <rect
       x="231.39294"
       y="182.13605"
       width="241.70255"
       height="175.26299"
       id="rect2-2" />
  </defs>
  <g
     inkscape:label="Layer 1"
     inkscape:groupmode="layer"
     id="layer1">
    <path
       style="fill:#ff0044;stroke-width:0.264583"
       d="m 64.745459,115.3236 22.540588,23.72693 a 4.8664669,4.8664669 66.053614 0 1 1.324188,2.98168 l 2.327051,30.51021 a 1.1466806,1.1466806 32.02954 0 0 1.565097,0.9791 l 5.177751,-2.04785 a 2.8532133,2.8532133 126.09005 0 0 1.797692,-2.46615 l 1.786224,-27.18383 a 4.0426059,4.0426059 114.37973 0 1 1.17535,-2.59349 l 23.68502,-23.68502 a 2.2688727,2.2688727 67.5 0 0 -1.60433,-3.87321 l -58.206947,0 a 2.1623256,2.1623256 113.2344 0 0 -1.567684,3.65163 z"
       id="path1"
       sodipodi:nodetypes="ccccccc"
       inkscape:path-effect="#path-effect2"
       inkscape:original-d="m 61.276414,111.67197 27.202146,28.63384 2.577047,33.78793 8.303813,-3.28425 2.00437,-30.50368 28.63384,-28.63384 z" />
    <g
       id="g4">
      <path
         d="m 67.005664,71.351739 h 2.266938 v -6.474867 l -1.95579,1.496481 -0.889002,-1.185333 3.378195,-2.578095 h 1.303869 v 8.741814 h 2.222497 v 1.629834 h -6.326707 z m 16.243282,-3.570807 q 0,-1.348311 0.281514,-2.355849 0.281514,-1.022346 0.785283,-1.689093 0.518577,-0.666747 1.229775,-0.992712 0.711207,-0.340782 1.585383,-0.340782 1.866897,0 2.874426,1.318677 1.007538,1.303869 1.007538,4.059759 0,1.363128 -0.281523,2.385483 -0.281514,1.007529 -0.800091,1.689093 -0.503769,0.666747 -1.229784,1.007529 -0.711198,0.325974 -1.585383,0.325974 -1.881714,0 -2.874426,-1.377954 -0.992712,-1.392762 -0.992712,-4.030125 z m 5.867388,0 q 0,-0.237063 -0.01482,-0.444501 0,-0.222246 -0.01482,-0.429684 l -3.630075,3.304119 q 0.459309,1.348311 1.674276,1.348311 0.94827,0 1.466847,-0.903819 0.518586,-0.90381 0.518586,-2.874426 z m -3.970857,0 q 0,0.222255 0,0.429684 0.01482,0.192612 0.02963,0.40005 l 3.615267,-3.30411 q -0.444501,-1.274235 -1.674285,-1.274235 -0.948261,0 -1.466847,0.918636 -0.50376,0.90381 -0.50376,2.829975 z m 16.361813,3.570807 h 2.26694 v -6.474867 l -1.9558,1.496481 -0.88899,-1.185333 3.3782,-2.578095 h 1.30386 v 8.741814 h 2.22249 v 1.629834 h -6.3267 z m 16.24329,-3.570807 q 0,-1.348311 0.28151,-2.355849 0.28151,-1.022346 0.78528,-1.689093 0.51858,-0.666747 1.22978,-0.992712 0.7112,-0.340782 1.58538,-0.340782 1.8669,0 2.87443,1.318677 1.00753,1.303869 1.00753,4.059759 0,1.363128 -0.28152,2.385483 -0.28151,1.007529 -0.80009,1.689093 -0.50377,0.666747 -1.22978,1.007529 -0.7112,0.325974 -1.58539,0.325974 -1.88171,0 -2.87442,-1.377954 -0.99271,-1.392762 -0.99271,-4.030125 z m 5.86738,0 q 0,-0.237063 -0.0148,-0.444501 0,-0.222246 -0.0148,-0.429684 l -3.63008,3.304119 q 0.45931,1.348311 1.67428,1.348311 0.94827,0 1.46685,-0.903819 0.51858,-0.90381 0.51858,-2.874426 z m -3.97086,0 q 0,0.222255 0,0.429684 0.0148,0.192612 0.0296,0.40005 l 3.61527,-3.30411 q -0.4445,-1.274235 -1.67429,-1.274235 -0.94826,0 -1.46684,0.918636 -0.50377,0.90381 -0.50377,2.829975 z M 67.005664,88.285029 h 2.266938 v -6.474867 l -1.95579,1.496481 -0.889002,-1.185333 3.378195,-2.578095 h 1.303869 v 8.741814 h 2.222497 v 1.629834 h -6.326707 z m 16.243282,-3.570807 q 0,-1.348311 0.281514,-2.355849 0.281514,-1.022346 0.785283,-1.689093 0.518577,-0.666747 1.229775,-0.992721 0.711207,-0.340782 1.585383,-0.340782 1.866897,0 2.874426,1.318686 1.007538,1.30386 1.007538,4.059759 0,1.363128 -0.281523,2.385474 -0.281514,1.007538 -0.800091,1.689102 -0.503769,0.666747 -1.229784,1.007529 -0.711198,0.325965 -1.585383,0.325965 -1.881714,0 -2.874426,-1.377945 -0.992712,-1.392762 -0.992712,-4.030125 z m 5.867388,0 q 0,-0.237063 -0.01482,-0.444501 0,-0.222246 -0.01482,-0.429684 l -3.630075,3.30411 q 0.459309,1.34832 1.674276,1.34832 0.94827,0 1.466847,-0.903819 0.518586,-0.90381 0.518586,-2.874426 z m -3.970857,0 q 0,0.222246 0,0.429684 0.01482,0.192612 0.02963,0.40005 l 3.615267,-3.30411 q -0.444501,-1.274235 -1.674285,-1.274235 -0.948261,0 -1.466847,0.918636 -0.50376,0.90381 -0.50376,2.829975 z m 15.354283,0 q 0,-1.348311 0.28151,-2.355849 0.28152,-1.022346 0.78528,-1.689093 0.51859,-0.666747 1.22979,-0.992721 0.7112,-0.340782 1.58538,-0.340782 1.8669,0 2.87443,1.318686 1.00753,1.30386 1.00753,4.059759 0,1.363128 -0.28152,2.385474 -0.28151,1.007538 -0.8001,1.689102 -0.50377,0.666747 -1.22978,1.007529 -0.7112,0.325965 -1.58538,0.325965 -1.88171,0 -2.87443,-1.377945 -0.99271,-1.392762 -0.99271,-4.030125 z m 5.86738,0 q 0,-0.237063 -0.0148,-0.444501 0,-0.222246 -0.0148,-0.429684 l -3.63007,3.30411 q 0.45931,1.34832 1.67428,1.34832 0.94826,0 1.46685,-0.903819 0.51857,-0.90381 0.51857,-2.874426 z m -3.97085,0 q 0,0.222246 0,0.429684 0.0148,0.192612 0.0296,0.40005 l 3.61526,-3.30411 q -0.4445,-1.274235 -1.67428,-1.274235 -0.94827,0 -1.46684,0.918636 -0.50377,0.90381 -0.50377,2.829975 z m 16.36181,3.570807 h 2.26695 v -6.474867 l -1.9558,1.496481 -0.889,-1.185333 3.3782,-2.578095 h 1.30386 v 8.741814 h 2.2225 v 1.629834 H 118.7581 Z M 65.998126,101.64751 q 0,-1.34832 0.281523,-2.355847 0.281514,-1.022346 0.785274,-1.689093 0.518586,-0.666756 1.229784,-0.992721 0.711198,-0.340782 1.585383,-0.340782 1.866897,0 2.874426,1.318686 1.007529,1.30386 1.007529,4.059757 0,1.36313 -0.281514,2.38548 -0.281514,1.00753 -0.8001,1.6891 -0.50376,0.66675 -1.229775,1.00753 -0.711198,0.32596 -1.585383,0.32596 -1.881714,0 -2.874426,-1.37794 -0.992721,-1.39276 -0.992721,-4.03013 z m 5.867388,0 q 0,-0.23707 -0.01482,-0.4445 0,-0.22225 -0.01482,-0.42968 l -3.630084,3.30411 q 0.459318,1.34831 1.674285,1.34831 0.948261,0 1.466847,-0.90381 0.518577,-0.90382 0.518577,-2.87443 z m -3.970857,0 q 0,0.22225 0,0.42968 0.01482,0.19262 0.02963,0.40005 l 3.615258,-3.304113 q -0.444492,-1.274226 -1.674276,-1.274226 -0.94827,0 -1.466847,0.918627 -0.503769,0.903819 -0.503769,2.829982 z m 16.361818,3.57081 h 2.266947 v -6.474877 l -1.955799,1.496477 -0.888993,-1.18532 3.378186,-2.578095 h 1.303869 v 8.741815 h 2.222496 v 1.62983 h -6.326706 z m 16.243285,-3.57081 q 0,-1.34832 0.28151,-2.355847 0.28152,-1.022346 0.78528,-1.689093 0.51859,-0.666756 1.22979,-0.992721 0.7112,-0.340782 1.58538,-0.340782 1.8669,0 2.87443,1.318686 1.00753,1.30386 1.00753,4.059757 0,1.36313 -0.28152,2.38548 -0.28151,1.00753 -0.8001,1.6891 -0.50377,0.66675 -1.22978,1.00753 -0.7112,0.32596 -1.58538,0.32596 -1.88171,0 -2.87443,-1.37794 -0.99271,-1.39276 -0.99271,-4.03013 z m 5.86738,0 q 0,-0.23707 -0.0148,-0.4445 0,-0.22225 -0.0148,-0.42968 l -3.63007,3.30411 q 0.45931,1.34831 1.67428,1.34831 0.94826,0 1.46685,-0.90381 0.51857,-0.90382 0.51857,-2.87443 z m -3.97085,0 q 0,0.22225 0,0.42968 0.0148,0.19262 0.0296,0.40005 l 3.61526,-3.304113 q -0.4445,-1.274226 -1.67428,-1.274226 -0.94827,0 -1.46684,0.918627 -0.50377,0.903819 -0.50377,2.829982 z m 16.36181,3.57081 h 2.26695 v -6.474877 l -1.9558,1.496477 -0.889,-1.18532 3.3782,-2.578095 h 1.30386 v 8.741815 h 2.2225 v 1.62983 h -6.32671 z"
         id="text2"
         style="font-weight:bold;font-size:16.2996px;line-height:18.6281px;font-family:'PT Mono';-inkscape-font-specification:'PT Mono, Bold';letter-spacing:-0.291065px;white-space:pre;fill:#1e1e1e;stroke-width:0.909019"
         aria-label="1 0 1 0&#10;1 0 0 1&#10;0 1 0 1&#10;" />
      <path
         d="m 289.89547,823.66002 h 1.77177 v -5.06055 l -1.52859,1.1696 -0.69481,-0.92641 2.64029,-2.01496 h 1.01906 v 6.83232 h 1.73703 v 1.27382 h -4.94475 z m 0,12.40735 h 1.77177 v -5.06055 l -1.52859,1.1696 -0.69481,-0.92642 2.64029,-2.01495 h 1.01906 v 6.83232 h 1.73703 v 1.27382 h -4.94475 z"
         id="text3"
         style="font-weight:bold;font-size:11.5802px;line-height:12.4073px;font-family:'PT Mono';-inkscape-font-specification:'PT Mono, Bold';white-space:pre;fill:#1e1e1e"
         transform="matrix(1.2794844,0,0,1.2794844,-278.63622,-867.72479)"
         aria-label="1&#10;1" />
    </g>
  </g>
</svg>
